<?xml version="1.0" encoding="iso-8859-1"?>
<!-- Generator: Adobe Illustrator 19.0.0, SVG Export Plug-In . SVG Version: 6.00 Build 0)  -->
<svg version="1.1" id="Layer_1" xmlns="http://www.w3.org/2000/svg" xmlns:xlink="http://www.w3.org/1999/xlink" x="0px" y="0px"
	 viewBox="0 0 512.001 512.001" style="enable-background:new 0 0 512.001 512.001;" xml:space="preserve">
<g>
	<g>
		<g>
			<path d="M405.334,0H106.667C77.248,0,53.334,23.936,53.334,53.333v448c0,3.776,2.005,7.275,5.248,9.195
				c3.264,1.92,7.275,1.963,10.603,0.128L256,406.869l186.816,103.787c1.621,0.896,3.392,1.344,5.184,1.344
				c1.877,0,3.755-0.491,5.419-1.472c3.243-1.92,5.248-5.419,5.248-9.195v-448C458.667,23.936,434.752,0,405.334,0z M437.334,483.2
				l-176.149-97.856C259.563,384.448,257.792,384,256,384s-3.563,0.448-5.184,1.344L74.667,483.2V53.333c0-17.643,14.357-32,32-32
				h298.667c17.643,0,32,14.357,32,32V483.2z"/>
			<path d="M406.507,170.731l-90.539-10.048l-50.645-91.179c-3.797-6.763-14.869-6.763-18.667,0l-50.645,91.179l-90.539,10.048
				c-4.053,0.469-7.509,3.221-8.875,7.083c-1.365,3.861-0.384,8.171,2.517,11.072l70.635,70.635l-20.203,101.056
				c-0.811,4.075,0.811,8.256,4.16,10.709c3.392,2.453,7.829,2.709,11.477,0.704L256,321.536l90.816,50.453
				c1.621,0.896,3.413,1.344,5.184,1.344c2.219,0,4.416-0.683,6.272-2.048c3.349-2.453,4.971-6.635,4.16-10.709L342.23,259.52
				l70.635-70.635c2.901-2.901,3.861-7.189,2.517-11.072C414.038,173.931,410.56,171.179,406.507,170.731z M323.136,248.469
				c-2.517,2.539-3.627,6.144-2.923,9.643l16.811,84.032l-75.84-42.133c-1.621-0.896-3.392-1.344-5.184-1.344
				s-3.563,0.448-5.184,1.344l-75.84,42.133l16.811-84.032c0.704-3.499-0.405-7.125-2.923-9.643l-58.987-58.987l73.963-8.213
				c3.413-0.384,6.464-2.389,8.149-5.419L256,96.64l44.011,79.211c1.685,3.008,4.736,5.035,8.149,5.419l73.963,8.213
				L323.136,248.469z"/>
		</g>
	</g>
</g>
<g>
</g>
<g>
</g>
<g>
</g>
<g>
</g>
<g>
</g>
<g>
</g>
<g>
</g>
<g>
</g>
<g>
</g>
<g>
</g>
<g>
</g>
<g>
</g>
<g>
</g>
<g>
</g>
<g>
</g>
</svg>
