<?xml version="1.0" encoding="iso-8859-1"?>
<!-- Generator: Adobe Illustrator 19.0.0, SVG Export Plug-In . SVG Version: 6.00 Build 0)  -->
<svg version="1.1" id="Layer_1" xmlns="http://www.w3.org/2000/svg" xmlns:xlink="http://www.w3.org/1999/xlink" x="0px" y="0px"
	 viewBox="0 0 490.679 490.679" style="enable-background:new 0 0 490.679 490.679;" xml:space="preserve">
	<g>
		<path d="M490.123,188.339c-1.301-3.84-4.693-6.613-8.704-7.147l-154.496-20.48L254.902,16.329c-3.584-7.232-15.509-7.232-19.093,0
			l-72.043,144.384L9.27,181.193c-4.011,0.533-7.36,3.307-8.704,7.147c-1.301,3.84-0.32,8.085,2.56,10.965l113.301,113.301
			L85.558,466.995c-0.789,4.011,0.768,8.107,3.989,10.581c3.243,2.475,7.637,2.88,11.243,1.067l144.555-72.277l144.555,72.277
			c1.536,0.747,3.157,1.131,4.779,1.131c2.283,0,4.587-0.747,6.443-2.197c3.243-2.496,4.779-6.571,3.989-10.581L374.24,312.606
			l113.301-113.301C490.443,196.425,491.403,192.179,490.123,188.339z M355.147,301.555c-2.517,2.539-3.627,6.144-2.923,9.643
			l27.733,138.624l-129.835-64.917c-1.515-0.747-3.157-1.131-4.779-1.131s-3.264,0.384-4.779,1.131l-129.835,64.917l27.733-138.624
			c0.704-3.499-0.405-7.125-2.923-9.643L33.483,199.497l138.709-18.389c3.52-0.469,6.571-2.645,8.149-5.803l65.003-130.304
			l65.003,130.304c1.579,3.157,4.629,5.333,8.149,5.803l138.709,18.389L355.147,301.555z"/>
	</g>

</svg>
